<svg width="290" height="209" viewBox="0 0 290 209" fill="none" xmlns="http://www.w3.org/2000/svg">
<rect x="1.5" y="1.5" width="287" height="206" rx="6.5" fill="#658473" stroke="#9C7A53" stroke-width="3"/>
<path d="M52.14 113.6C52.34 113.9 52.76 114.17 53.4 114.41C54.06 114.65 54.75 114.77 55.47 114.77C56.61 114.77 57.45 114.55 57.99 114.11C58.53 113.67 58.8 113.06 58.8 112.28C58.8 111.74 58.63 111.27 58.29 110.87C57.95 110.47 57.47 110.12 56.85 109.82C56.25 109.5 55.38 109.12 54.24 108.68C52.7 108.1 51.57 107.41 50.85 106.61C50.15 105.79 49.8 104.72 49.8 103.4C49.8 102.52 50.06 101.75 50.58 101.09C51.12 100.43 51.85 99.92 52.77 99.56C53.71 99.18 54.75 98.99 55.89 98.99C56.81 98.99 57.61 99.06 58.29 99.2C58.99 99.34 59.55 99.48 59.97 99.62C60.39 99.76 60.67 99.85 60.81 99.89V103.61H58.98L58.38 101.39C58.26 101.15 57.94 100.95 57.42 100.79C56.9 100.61 56.32 100.52 55.68 100.52C54.78 100.52 54.05 100.72 53.49 101.12C52.95 101.52 52.68 102.06 52.68 102.74C52.68 103.34 52.82 103.84 53.1 104.24C53.4 104.62 53.77 104.93 54.21 105.17C54.65 105.41 55.25 105.69 56.01 106.01L56.61 106.25C57.73 106.69 58.64 107.11 59.34 107.51C60.04 107.91 60.62 108.44 61.08 109.1C61.56 109.74 61.8 110.53 61.8 111.47C61.8 112.95 61.22 114.13 60.06 115.01C58.92 115.89 57.35 116.33 55.35 116.33C54.37 116.33 53.34 116.2 52.26 115.94C51.2 115.66 50.33 115.38 49.65 115.1V111.26H51.6L52.14 113.6ZM66.1165 93.62L63.5965 93.29V92L68.4865 91.43H68.5465L69.2065 91.88V98.84L69.0865 101.39C69.7265 100.81 70.6065 100.26 71.7265 99.74C72.8465 99.22 73.9765 98.96 75.1165 98.96C76.3765 98.96 77.3565 99.2 78.0565 99.68C78.7565 100.16 79.2465 100.9 79.5265 101.9C79.8065 102.88 79.9465 104.21 79.9465 105.89V114.26L82.0465 114.53V116H74.8765V114.53L76.8265 114.26V105.86C76.8265 104.68 76.7465 103.76 76.5865 103.1C76.4265 102.42 76.1265 101.92 75.6865 101.6C75.2465 101.26 74.5865 101.09 73.7065 101.09C72.9865 101.09 72.2165 101.27 71.3965 101.63C70.5765 101.99 69.8565 102.41 69.2365 102.89V114.26L71.3065 114.53V116H64.3165V114.53L66.1165 114.29V93.62ZM87.8119 96.35C87.1719 96.35 86.6919 96.17 86.3719 95.81C86.0519 95.45 85.8919 94.99 85.8919 94.43C85.8919 93.79 86.0819 93.26 86.4619 92.84C86.8619 92.42 87.4019 92.21 88.0819 92.21C88.7619 92.21 89.2619 92.39 89.5819 92.75C89.9019 93.11 90.0619 93.57 90.0619 94.13C90.0619 94.81 89.8619 95.35 89.4619 95.75C89.0819 96.15 88.5419 96.35 87.8419 96.35H87.8119ZM86.6119 101.66L84.3319 101.12V99.53L88.9819 98.96H89.0419L89.7319 99.5V114.29L92.1319 114.53V116H84.1819V114.53L86.6119 114.26V101.66ZM96.6621 101.33H93.8421V99.95L96.6621 99.38V97.97C96.6621 96.73 96.9821 95.59 97.6221 94.55C98.2821 93.51 99.1321 92.69 100.172 92.09C101.232 91.47 102.352 91.16 103.532 91.16C104.212 91.16 104.802 91.25 105.302 91.43V94.43C105.122 94.27 104.762 94.12 104.222 93.98C103.702 93.82 103.122 93.74 102.482 93.74C101.542 93.74 100.852 93.99 100.412 94.49C99.9921 94.97 99.7821 95.81 99.7821 97.01V99.38H103.922V101.33H99.7821V114.29L103.112 114.53V116H94.1121V114.53L96.6621 114.26V101.33ZM111.404 116.3C110.264 116.3 109.414 116.04 108.854 115.52C108.294 115 108.014 114.11 108.014 112.85V101.33H105.854V99.98C105.954 99.96 106.234 99.89 106.694 99.77C107.154 99.65 107.464 99.54 107.624 99.44C107.944 99.26 108.194 98.9 108.374 98.36C108.534 97.98 108.724 97.37 108.944 96.53C109.164 95.69 109.294 95.19 109.334 95.03H111.104L111.164 99.35H116.174V101.33H111.164V110.54C111.164 111.68 111.194 112.48 111.254 112.94C111.334 113.4 111.484 113.7 111.704 113.84C111.944 113.98 112.344 114.05 112.904 114.05C113.444 114.05 114.034 113.98 114.674 113.84C115.334 113.7 115.844 113.55 116.204 113.39L116.654 114.74C116.174 115.1 115.394 115.45 114.314 115.79C113.254 116.13 112.284 116.3 111.404 116.3ZM130.74 116.3C129.6 116.3 128.75 116.04 128.19 115.52C127.63 115 127.35 114.11 127.35 112.85V101.33H125.19V99.98C125.29 99.96 125.57 99.89 126.03 99.77C126.49 99.65 126.8 99.54 126.96 99.44C127.28 99.26 127.53 98.9 127.71 98.36C127.87 97.98 128.06 97.37 128.28 96.53C128.5 95.69 128.63 95.19 128.67 95.03H130.44L130.5 99.35H135.51V101.33H130.5V110.54C130.5 111.68 130.53 112.48 130.59 112.94C130.67 113.4 130.82 113.7 131.04 113.84C131.28 113.98 131.68 114.05 132.24 114.05C132.78 114.05 133.37 113.98 134.01 113.84C134.67 113.7 135.18 113.55 135.54 113.39L135.99 114.74C135.51 115.1 134.73 115.45 133.65 115.79C132.59 116.13 131.62 116.3 130.74 116.3ZM137.827 107.63C137.827 105.83 138.197 104.27 138.937 102.95C139.677 101.63 140.647 100.63 141.847 99.95C143.067 99.25 144.367 98.9 145.747 98.9C148.267 98.9 150.157 99.7 151.417 101.3C152.697 102.9 153.337 105 153.337 107.6C153.337 109.42 152.967 110.99 152.227 112.31C151.487 113.63 150.507 114.63 149.287 115.31C148.087 115.99 146.797 116.33 145.417 116.33C142.897 116.33 140.997 115.53 139.717 113.93C138.457 112.33 137.827 110.23 137.827 107.63ZM145.597 114.62C146.977 114.62 148.037 114.05 148.777 112.91C149.517 111.77 149.887 110.08 149.887 107.84C149.887 105.62 149.547 103.86 148.867 102.56C148.187 101.26 147.097 100.61 145.597 100.61C144.217 100.61 143.147 101.18 142.387 102.32C141.647 103.46 141.277 105.15 141.277 107.39C141.277 109.61 141.627 111.37 142.327 112.67C143.027 113.97 144.117 114.62 145.597 114.62ZM168.328 116.3C167.188 116.3 166.338 116.04 165.778 115.52C165.218 115 164.938 114.11 164.938 112.85V101.33H162.778V99.98C162.878 99.96 163.158 99.89 163.618 99.77C164.078 99.65 164.388 99.54 164.548 99.44C164.868 99.26 165.118 98.9 165.298 98.36C165.458 97.98 165.648 97.37 165.868 96.53C166.088 95.69 166.218 95.19 166.258 95.03H168.028L168.088 99.35H173.098V101.33H168.088V110.54C168.088 111.68 168.118 112.48 168.178 112.94C168.258 113.4 168.408 113.7 168.628 113.84C168.868 113.98 169.268 114.05 169.828 114.05C170.368 114.05 170.958 113.98 171.598 113.84C172.258 113.7 172.768 113.55 173.128 113.39L173.578 114.74C173.098 115.1 172.318 115.45 171.238 115.79C170.178 116.13 169.208 116.3 168.328 116.3ZM177.034 93.62L174.514 93.29V92L179.404 91.43H179.464L180.124 91.88V98.84L180.004 101.39C180.644 100.81 181.524 100.26 182.644 99.74C183.764 99.22 184.894 98.96 186.034 98.96C187.294 98.96 188.274 99.2 188.974 99.68C189.674 100.16 190.164 100.9 190.444 101.9C190.724 102.88 190.864 104.21 190.864 105.89V114.26L192.964 114.53V116H185.794V114.53L187.744 114.26V105.86C187.744 104.68 187.664 103.76 187.504 103.1C187.344 102.42 187.044 101.92 186.604 101.6C186.164 101.26 185.504 101.09 184.624 101.09C183.904 101.09 183.134 101.27 182.314 101.63C181.494 101.99 180.774 102.41 180.154 102.89V114.26L182.224 114.53V116H175.234V114.53L177.034 114.29V93.62ZM195.25 114.53L197.5 114.35V101.66L195.34 101.12V99.5L199.48 98.96H199.54L200.2 99.5V100.04L200.11 102.38H200.2C200.4 102.04 200.76 101.6 201.28 101.06C201.8 100.52 202.47 100.03 203.29 99.59C204.11 99.13 205 98.9 205.96 98.9C206.36 98.9 206.69 98.95 206.95 99.05V102.41C206.81 102.31 206.58 102.22 206.26 102.14C205.96 102.04 205.62 101.99 205.24 101.99C203.58 101.99 202.04 102.5 200.62 103.52V114.32L204.43 114.56V116H195.25V114.53ZM212.47 96.35C211.83 96.35 211.35 96.17 211.03 95.81C210.71 95.45 210.55 94.99 210.55 94.43C210.55 93.79 210.74 93.26 211.12 92.84C211.52 92.42 212.06 92.21 212.74 92.21C213.42 92.21 213.92 92.39 214.24 92.75C214.56 93.11 214.72 93.57 214.72 94.13C214.72 94.81 214.52 95.35 214.12 95.75C213.74 96.15 213.2 96.35 212.5 96.35H212.47ZM211.27 101.66L208.99 101.12V99.53L213.64 98.96H213.7L214.39 99.5V114.29L216.79 114.53V116H208.84V114.53L211.27 114.26V101.66ZM221.32 101.33H218.5V99.95L221.32 99.38V97.97C221.32 96.73 221.64 95.59 222.28 94.55C222.94 93.51 223.79 92.69 224.83 92.09C225.89 91.47 227.01 91.16 228.19 91.16C228.87 91.16 229.46 91.25 229.96 91.43V94.43C229.78 94.27 229.42 94.12 228.88 93.98C228.36 93.82 227.78 93.74 227.14 93.74C226.2 93.74 225.51 93.99 225.07 94.49C224.65 94.97 224.44 95.81 224.44 97.01V99.38H228.58V101.33H224.44V114.29L227.77 114.53V116H218.77V114.53L221.32 114.26V101.33ZM236.062 116.3C234.922 116.3 234.072 116.04 233.512 115.52C232.952 115 232.672 114.11 232.672 112.85V101.33H230.512V99.98C230.612 99.96 230.892 99.89 231.352 99.77C231.812 99.65 232.122 99.54 232.282 99.44C232.602 99.26 232.852 98.9 233.032 98.36C233.192 97.98 233.382 97.37 233.602 96.53C233.822 95.69 233.952 95.19 233.992 95.03H235.762L235.822 99.35H240.832V101.33H235.822V110.54C235.822 111.68 235.852 112.48 235.912 112.94C235.992 113.4 236.142 113.7 236.362 113.84C236.602 113.98 237.002 114.05 237.562 114.05C238.102 114.05 238.692 113.98 239.332 113.84C239.992 113.7 240.502 113.55 240.862 113.39L241.312 114.74C240.832 115.1 240.052 115.45 238.972 115.79C237.912 116.13 236.942 116.3 236.062 116.3Z" fill="#E5E3E1"/>
</svg>
