<svg width="132" height="73" viewBox="0 0 132 73" fill="none" xmlns="http://www.w3.org/2000/svg">
<path d="M18.6021 14.5044C18.0962 10.4756 15.1333 8.01855 10.7974 8.01855C5.46777 8.01855 2.36035 11.2886 2.36035 16.9072V19.4727C2.36035 25.0913 5.46777 28.3613 10.7974 28.3613C15.1333 28.3613 18.1143 25.9224 18.6021 21.9297H15.5669C15.1875 24.1699 13.2725 25.5972 10.7432 25.5972C7.32861 25.5972 5.43164 23.2847 5.43164 19.0752V17.3047C5.43164 13.0952 7.32861 10.7646 10.7432 10.7646C13.2725 10.7646 15.1875 12.21 15.5669 14.5044H18.6021ZM25.2686 28H28.3398V16.4736C28.3398 13.1313 30.5259 10.873 33.7598 10.873C36.8311 10.873 38.2764 12.5532 38.2764 16.0762V28H41.3477V15.2993C41.3477 10.6201 39.0352 8.05469 34.7715 8.05469C31.7725 8.05469 29.5142 9.42773 28.4844 11.8667H28.2314V0.70166H25.2686V28ZM64.7437 28V25.4526H58.2759V0.70166H48.5562V3.24902H55.2046V25.4526H48.502V28H64.7437ZM79.0522 28.3613C84.2373 28.3613 87.5435 24.9829 87.5435 19.6895V16.7266C87.5435 11.4331 84.2373 8.05469 79.0522 8.05469C73.8672 8.05469 70.561 11.4331 70.561 16.7266V19.6895C70.561 24.9829 73.8672 28.3613 79.0522 28.3613ZM79.0522 10.7646C82.4126 10.7646 84.5083 13.1494 84.5083 16.9976V19.4004C84.5083 23.2666 82.4126 25.6333 79.0522 25.6333C75.6919 25.6333 73.5962 23.2666 73.5962 19.4004V16.9976C73.5962 13.1494 75.6919 10.7646 79.0522 10.7646ZM102.141 10.6743C105.303 10.6743 107.218 12.9326 107.218 16.6724H96.9019C96.9019 12.9146 98.8711 10.6743 102.141 10.6743ZM107.218 22.9414C106.676 24.6577 104.851 25.7056 102.376 25.7056C99.0337 25.7056 96.9019 23.3931 96.9019 19.7979V19.0029H110.253V17.0879C110.253 11.415 107.254 8.03662 102.159 8.03662C97.1729 8.03662 93.8667 11.4331 93.8667 16.6001V19.5449C93.8667 25.1274 96.9922 28.3613 102.376 28.3613C106.495 28.3613 109.603 26.1753 110.199 22.9414H107.218ZM19.8848 57.5649C19.8848 53.9336 18.4575 52.0366 15.7295 52.0366C13.7603 52.0366 12.1885 53.229 11.6826 55.1079H11.3574C10.9419 53.1748 9.64111 52.0366 7.79834 52.0366C5.95557 52.0366 4.54639 53.1929 4.05859 55.1621H3.7334V52.3979H0.987305V72H3.75146V58.7754C3.75146 56.3364 4.83545 54.8369 6.56982 54.8369C8.23193 54.8369 9.09912 56.0835 9.09912 58.4502V72H11.8452V58.7754C11.8452 56.3364 12.8931 54.8369 14.6094 54.8369C16.2534 54.8369 17.1206 56.0835 17.1206 58.4683V72H19.8848V57.5649ZM31.3208 72.3433C34.1753 72.3433 36.3071 71.1689 37.2466 69.0732H37.5537V72.0181H40.4805V58.5947C40.4805 54.5117 37.8428 52.1631 33.2358 52.1631C29.2251 52.1631 26.1899 54.313 25.8286 57.4565H28.8457C29.3516 55.7764 30.9414 54.8188 33.1997 54.8188C35.9277 54.8188 37.4272 56.1738 37.4272 58.6309V60.4014L32.0435 60.6724C27.5811 60.9072 25.0879 62.9668 25.0879 66.4355C25.0879 69.9946 27.5811 72.3433 31.3208 72.3433ZM32.2061 69.6514C29.731 69.6514 28.1953 68.3867 28.1953 66.3271C28.1953 64.2856 29.6406 63.1113 32.3867 62.9849L37.4272 62.75V65.0625C37.4272 67.6821 35.1689 69.6514 32.2061 69.6514ZM64.3462 58.5044C63.8403 54.4756 60.8774 52.0186 56.5415 52.0186C51.2119 52.0186 48.1045 55.2886 48.1045 60.9072V63.4727C48.1045 69.0913 51.2119 72.3613 56.5415 72.3613C60.8774 72.3613 63.8584 69.9224 64.3462 65.9297H61.311C60.9316 68.1699 59.0166 69.5972 56.4873 69.5972C53.0728 69.5972 51.1758 67.2847 51.1758 63.0752V61.3047C51.1758 57.0952 53.0728 54.7646 56.4873 54.7646C59.0166 54.7646 60.9316 56.21 61.311 58.5044H64.3462ZM79.269 54.6743C82.4307 54.6743 84.3457 56.9326 84.3457 60.6724H74.0298C74.0298 56.9146 75.999 54.6743 79.269 54.6743ZM84.3457 66.9414C83.8037 68.6577 81.979 69.7056 79.5039 69.7056C76.1616 69.7056 74.0298 67.3931 74.0298 63.7979V63.0029H87.3809V61.0879C87.3809 55.415 84.3818 52.0366 79.2871 52.0366C74.3008 52.0366 70.9946 55.4331 70.9946 60.6001V63.5449C70.9946 69.1274 74.1201 72.3613 79.5039 72.3613C83.623 72.3613 86.7305 70.1753 87.3267 66.9414H84.3457ZM96.2876 60.7627C96.2876 57.1494 98.3652 54.8369 101.599 54.8369C104.815 54.8369 106.893 57.1494 106.893 60.7627V63.5811C106.893 67.2124 104.815 69.5249 101.599 69.5249C98.3652 69.5249 96.2876 67.1943 96.2876 63.5811V60.7627ZM106.911 69.001V72H109.928V44.7017H106.802V55.4331H106.477C105.628 53.2832 103.532 52.0728 100.696 52.0728C96.1611 52.0728 93.1982 55.3428 93.1982 60.3652V64.0146C93.1982 69.0552 96.1611 72.3252 100.696 72.3252C103.496 72.3252 105.556 71.1689 106.567 69.001H106.911ZM122.809 72.3433C125.664 72.3433 127.795 71.1689 128.735 69.0732H129.042V72.0181H131.969V58.5947C131.969 54.5117 129.331 52.1631 124.724 52.1631C120.713 52.1631 117.678 54.313 117.317 57.4565H120.334C120.84 55.7764 122.43 54.8188 124.688 54.8188C127.416 54.8188 128.916 56.1738 128.916 58.6309V60.4014L123.532 60.6724C119.069 60.9072 116.576 62.9668 116.576 66.4355C116.576 69.9946 119.069 72.3433 122.809 72.3433ZM123.694 69.6514C121.219 69.6514 119.684 68.3867 119.684 66.3271C119.684 64.2856 121.129 63.1113 123.875 62.9849L128.916 62.75V65.0625C128.916 67.6821 126.657 69.6514 123.694 69.6514Z" fill="black"/>
</svg>
